<svg width="20" height="20" viewBox="0 0 20 20" fill="none" xmlns="http://www.w3.org/2000/svg">
<circle cx="10" cy="10" r="10" transform="rotate(90 10 10)" fill="#EF7676"/>
<path d="M9.97933 3.67203C10.7965 3.53603 11.5692 4.08824 11.7052 4.90543C11.8412 5.72262 11.289 6.49533 10.4718 6.63133C9.65464 6.76732 8.88193 6.21511 8.74593 5.39792C8.60993 4.58073 9.16215 3.80802 9.97933 3.67203Z" fill="#B33333"/>
<path fill-rule="evenodd" clip-rule="evenodd" d="M0 10C-2.41411e-07 15.5228 4.47715 20 10 20C15.5228 20 20 15.5228 20 10L0 10Z" fill="#B33333"/>
<path d="M16.5214 12.1642C17.0662 12.0735 17.5813 12.4416 17.672 12.9864C17.7626 13.5312 17.3945 14.0464 16.8497 14.137C16.3049 14.2277 15.7898 13.8596 15.6991 13.3148C15.6084 12.77 15.9766 12.2548 16.5214 12.1642Z" fill="#EF7676"/>
<path d="M12.6854 11.1642C13.2302 11.0735 13.7454 11.4416 13.836 11.9864C13.9267 12.5312 13.5586 13.0464 13.0138 13.137C12.469 13.2277 11.9538 12.8596 11.8632 12.3148C11.7725 11.77 12.1406 11.2548 12.6854 11.1642Z" fill="#EF7676"/>
<path d="M12.6854 15.1642C13.2302 15.0735 13.7454 15.4416 13.836 15.9864C13.9267 16.5312 13.5586 17.0464 13.0138 17.137C12.469 17.2277 11.9538 16.8596 11.8632 16.3148C11.7725 15.77 12.1406 15.2548 12.6854 15.1642Z" fill="#EF7676"/>
<path d="M9.68544 13.1642C10.2302 13.0735 10.7454 13.4416 10.836 13.9864C10.9267 14.5312 10.5586 15.0464 10.0138 15.137C9.46898 15.2277 8.95384 14.8596 8.86317 14.3148C8.77251 13.77 9.14065 13.2548 9.68544 13.1642Z" fill="#EF7676"/>
<path d="M6.68544 11.1642C7.23023 11.0735 7.74537 11.4416 7.83604 11.9864C7.9267 12.5312 7.55856 13.0464 7.01377 13.137C6.46898 13.2277 5.95384 12.8596 5.86317 12.3148C5.77251 11.77 6.14065 11.2548 6.68544 11.1642Z" fill="#EF7676"/>
<path d="M2.68544 11.1642C3.23023 11.0735 3.74537 11.4416 3.83604 11.9864C3.9267 12.5312 3.55856 13.0464 3.01377 13.137C2.46898 13.2277 1.95384 12.8596 1.86317 12.3148C1.77251 11.77 2.14065 11.2548 2.68544 11.1642Z" fill="#EF7676"/>
<path d="M4.68544 14.1642C5.23023 14.0735 5.74537 14.4416 5.83604 14.9864C5.9267 15.5312 5.55856 16.0464 5.01377 16.137C4.46898 16.2277 3.95384 15.8596 3.86317 15.3148C3.77251 14.77 4.14065 14.2548 4.68544 14.1642Z" fill="#EF7676"/>
<path d="M8.68544 16.1642C9.23023 16.0735 9.74537 16.4416 9.83604 16.9864C9.9267 17.5312 9.55856 18.0464 9.01377 18.137C8.46898 18.2277 7.95384 17.8596 7.86317 17.3148C7.77251 16.77 8.14065 16.2548 8.68544 16.1642Z" fill="#EF7676"/>
</svg>
