<svg width="20" height="20" viewBox="0 0 20 20" fill="none" xmlns="http://www.w3.org/2000/svg">
<rect width="20" height="20" rx="10" fill="#BEDFF2"/>
<path fill-rule="evenodd" clip-rule="evenodd" d="M11 6C11 6.552 10.552 7 10 7C9.448 7 9 6.552 9 6C9 5.448 9.448 5 10 5C10.552 5 11 5.448 11 6ZM9 10L9 13.9995V14C9 14.5523 9.44772 15 10 15L11 15C11.5523 15 12 14.5523 12 14C12 13.4477 11.5523 13 11 13L11 9C11 8.99245 10.9999 8.98492 10.9998 8.97741C10.9877 8.43556 10.5447 8 10 8M9.99844 8H9C8.44772 8 8 8.44772 8 9C8 9.55229 8.44772 10 9 10" fill="#083D5A"/>
</svg>
