<svg width="20" height="20" viewBox="0 0 20 20" fill="none" xmlns="http://www.w3.org/2000/svg">
<rect width="20" height="20" rx="10" fill="#CD0000"/>
<path d="M14.5709 12.1901C14.5709 12.271 14.5504 12.352 14.509 12.4248C14.4247 12.5739 14.2662 12.6663 14.0948 12.6663L7.11136 12.6663C6.49854 12.6663 6 12.1963 6 11.6187L6 7.04755C6 6.46997 6.49854 5.99999 7.11136 5.99999L14.0948 5.99999C14.2643 5.99999 14.4209 6.08999 14.5062 6.23617C14.5919 6.38283 14.5933 6.56282 14.5095 6.71043L12.982 9.41122L14.5033 11.9454C14.5481 12.0206 14.5709 12.1053 14.5709 12.1901Z" fill="#CD0000"/>
<path fill-rule="evenodd" clip-rule="evenodd" d="M14.509 12.4248C14.5504 12.352 14.5709 12.271 14.5709 12.1901C14.5709 12.1053 14.5481 12.0206 14.5033 11.9454L12.982 9.41122L14.5095 6.71043C14.5933 6.56282 14.5919 6.38283 14.5062 6.23617C14.4209 6.08999 14.2643 5.99999 14.0948 5.99999L7.11136 5.99999C6.49854 5.99999 6 6.46997 6 7.04755L6 11.6187C6 12.1963 6.49854 12.6663 7.11136 12.6663L14.0948 12.6663C14.2662 12.6663 14.4247 12.5739 14.509 12.4248ZM12.016 9.18434C11.9751 9.25719 11.9546 9.33814 11.9546 9.41861C11.9546 9.50337 11.9775 9.58812 12.0227 9.66383L13.2536 11.7142L7.11109 11.7142C7.01538 11.7142 6.95205 11.657 6.95205 11.619L6.95205 7.0478C6.95205 7.01018 7.01538 6.95257 7.11109 6.95257L13.2783 6.95257L12.016 9.18434Z" fill="white"/>
<rect x="6" y="10.7622" width="0.952324" height="5.23778" rx="0.476162" fill="white"/>
</svg>
