<svg width="20" height="20" viewBox="0 0 20 20" fill="none" xmlns="http://www.w3.org/2000/svg">
<circle cx="10" cy="10" r="10" fill="#76EFD2"/>
<path fill-rule="evenodd" clip-rule="evenodd" d="M11.0208 8.83341C10.6987 8.83341 10.4375 8.57225 10.4375 8.25008C10.4375 7.92792 10.6987 7.66675 11.0208 7.66675C11.343 7.66675 11.6042 7.92792 11.6042 8.25008C11.6042 8.57225 11.343 8.83341 11.0208 8.83341Z" stroke="#00634C"/>
<path fill-rule="evenodd" clip-rule="evenodd" d="M8.97909 8.83341C8.65692 8.83341 8.39575 8.57225 8.39575 8.25008C8.39575 7.92792 8.65692 7.66675 8.97909 7.66675C9.30125 7.66675 9.56242 7.92792 9.56242 8.25008C9.56242 8.57225 9.30125 8.83341 8.97909 8.83341Z" stroke="#00634C"/>
<path fill-rule="evenodd" clip-rule="evenodd" d="M12.0416 10.5834C11.7194 10.5834 11.4583 10.3222 11.4583 10.0001C11.4583 9.67792 11.7194 9.41675 12.0416 9.41675C12.3638 9.41675 12.6249 9.67792 12.6249 10.0001C12.6249 10.3222 12.3638 10.5834 12.0416 10.5834Z" stroke="#00634C"/>
<path fill-rule="evenodd" clip-rule="evenodd" d="M13.0042 8.6875C12.7625 8.6875 12.5667 8.49162 12.5667 8.25C12.5667 8.00838 12.7625 7.8125 13.0042 7.8125C13.2458 7.8125 13.4417 8.00838 13.4417 8.25C13.4417 8.49162 13.2458 8.6875 13.0042 8.6875Z" stroke="#00634C"/>
<path fill-rule="evenodd" clip-rule="evenodd" d="M13.0042 12.1875C12.7625 12.1875 12.5667 11.9916 12.5667 11.75C12.5667 11.5084 12.7625 11.3125 13.0042 11.3125C13.2458 11.3125 13.4417 11.5084 13.4417 11.75C13.4417 11.9916 13.2458 12.1875 13.0042 12.1875Z" stroke="#00634C"/>
<path fill-rule="evenodd" clip-rule="evenodd" d="M14.5208 10.4375C14.2791 10.4375 14.0833 10.2416 14.0833 10C14.0833 9.75838 14.2791 9.5625 14.5208 9.5625C14.7624 9.5625 14.9583 9.75838 14.9583 10C14.9583 10.2416 14.7624 10.4375 14.5208 10.4375Z" stroke="#00634C"/>
<path fill-rule="evenodd" clip-rule="evenodd" d="M6.9668 8.6875C6.72517 8.6875 6.5293 8.49162 6.5293 8.25C6.5293 8.00838 6.72517 7.8125 6.9668 7.8125C7.20842 7.8125 7.4043 8.00838 7.4043 8.25C7.4043 8.49162 7.20842 8.6875 6.9668 8.6875Z" stroke="#00634C"/>
<path fill-rule="evenodd" clip-rule="evenodd" d="M6.9668 12.1875C6.72517 12.1875 6.5293 11.9916 6.5293 11.75C6.5293 11.5084 6.72517 11.3125 6.9668 11.3125C7.20842 11.3125 7.4043 11.5084 7.4043 11.75C7.4043 11.9916 7.20842 12.1875 6.9668 12.1875Z" stroke="#00634C"/>
<path fill-rule="evenodd" clip-rule="evenodd" d="M5.44995 10.4375C5.20833 10.4375 5.01245 10.2416 5.01245 10C5.01245 9.75838 5.20833 9.5625 5.44995 9.5625C5.69158 9.5625 5.88745 9.75838 5.88745 10C5.88745 10.2416 5.69158 10.4375 5.44995 10.4375Z" stroke="#00634C"/>
<path fill-rule="evenodd" clip-rule="evenodd" d="M12.2749 6.4707C12.0333 6.4707 11.8374 6.27483 11.8374 6.0332C11.8374 5.79158 12.0333 5.5957 12.2749 5.5957C12.5165 5.5957 12.7124 5.79158 12.7124 6.0332C12.7124 6.27483 12.5165 6.4707 12.2749 6.4707Z" stroke="#00634C"/>
<path fill-rule="evenodd" clip-rule="evenodd" d="M7.7251 6.4707C7.48347 6.4707 7.2876 6.27483 7.2876 6.0332C7.2876 5.79158 7.48347 5.5957 7.7251 5.5957C7.96672 5.5957 8.1626 5.79158 8.1626 6.0332C8.1626 6.27483 7.96672 6.4707 7.7251 6.4707Z" stroke="#00634C"/>
<path fill-rule="evenodd" clip-rule="evenodd" d="M10.0293 6.9375C9.78767 6.9375 9.5918 6.74162 9.5918 6.5C9.5918 6.25838 9.78767 6.0625 10.0293 6.0625C10.2709 6.0625 10.4668 6.25838 10.4668 6.5C10.4668 6.74162 10.2709 6.9375 10.0293 6.9375Z" stroke="#00634C"/>
<path fill-rule="evenodd" clip-rule="evenodd" d="M12.2749 14.5208C12.0333 14.5208 11.8374 14.3249 11.8374 14.0833C11.8374 13.8416 12.0333 13.6458 12.2749 13.6458C12.5165 13.6458 12.7124 13.8416 12.7124 14.0833C12.7124 14.3249 12.5165 14.5208 12.2749 14.5208Z" stroke="#00634C"/>
<path fill-rule="evenodd" clip-rule="evenodd" d="M7.7251 14.5208C7.48347 14.5208 7.2876 14.3249 7.2876 14.0833C7.2876 13.8416 7.48347 13.6458 7.7251 13.6458C7.96672 13.6458 8.1626 13.8416 8.1626 14.0833C8.1626 14.3249 7.96672 14.5208 7.7251 14.5208Z" stroke="#00634C"/>
<path fill-rule="evenodd" clip-rule="evenodd" d="M10.0293 14.0542C9.78767 14.0542 9.5918 13.8583 9.5918 13.6167C9.5918 13.3751 9.78767 13.1792 10.0293 13.1792C10.2709 13.1792 10.4668 13.3751 10.4668 13.6167C10.4668 13.8583 10.2709 14.0542 10.0293 14.0542Z" stroke="#00634C"/>
<path fill-rule="evenodd" clip-rule="evenodd" d="M7.95833 10.5834C7.63617 10.5834 7.375 10.3222 7.375 10.0001C7.375 9.67792 7.63617 9.41675 7.95833 9.41675C8.2805 9.41675 8.54167 9.67792 8.54167 10.0001C8.54167 10.3222 8.2805 10.5834 7.95833 10.5834Z" stroke="#00634C"/>
<path fill-rule="evenodd" clip-rule="evenodd" d="M8.97909 12.3334C8.65692 12.3334 8.39575 12.0722 8.39575 11.7501C8.39575 11.4279 8.65692 11.1667 8.97909 11.1667C9.30125 11.1667 9.56242 11.4279 9.56242 11.7501C9.56242 12.0722 9.30125 12.3334 8.97909 12.3334Z" stroke="#00634C"/>
<path fill-rule="evenodd" clip-rule="evenodd" d="M11.0208 12.3334C10.6987 12.3334 10.4375 12.0722 10.4375 11.7501C10.4375 11.4279 10.6987 11.1667 11.0208 11.1667C11.343 11.1667 11.6042 11.4279 11.6042 11.7501C11.6042 12.0722 11.343 12.3334 11.0208 12.3334Z" stroke="#00634C"/>
<path d="M10 4.4292V4.4292" stroke="#00634C" stroke-linecap="round" stroke-linejoin="round"/>
<path d="M13.2083 4.6626V4.6626" stroke="#00634C" stroke-linecap="round" stroke-linejoin="round"/>
<path d="M13.2083 15.3667V15.3667" stroke="#00634C" stroke-linecap="round" stroke-linejoin="round"/>
<path d="M14.6667 12.625V12.625" stroke="#00634C" stroke-linecap="round" stroke-linejoin="round"/>
<path d="M14.6667 7.08325V7.08325" stroke="#00634C" stroke-linecap="round" stroke-linejoin="round"/>
<path d="M5.33325 12.625V12.625" stroke="#00634C" stroke-linecap="round" stroke-linejoin="round"/>
<path d="M5.33325 7.08325V7.08325" stroke="#00634C" stroke-linecap="round" stroke-linejoin="round"/>
<path d="M6.79175 4.6626V4.6626" stroke="#00634C" stroke-linecap="round" stroke-linejoin="round"/>
<path d="M6.79175 15.3667V15.3667" stroke="#00634C" stroke-linecap="round" stroke-linejoin="round"/>
<path d="M10 15.5417V15.5417" stroke="#00634C" stroke-linecap="round" stroke-linejoin="round"/>
<path d="M3.9043 10V10" stroke="#00634C" stroke-linecap="round" stroke-linejoin="round"/>
<path d="M16.125 10V10" stroke="#00634C" stroke-linecap="round" stroke-linejoin="round"/>
</svg>
