<svg width="20" height="20" viewBox="0 0 20 20" fill="none" xmlns="http://www.w3.org/2000/svg">
<circle cx="10" cy="10" r="10" fill="#767AEF"/>
<path d="M12.78 13.5254L12.777 13.4285H12.68H12H11.8919L11.9003 13.5363C11.9444 14.1017 12.1301 14.5564 12.4655 14.8899L12.4661 14.8905C12.7819 15.1993 13.1984 15.3833 13.708 15.448V16V16.1H13.808H14.248H14.348V16V15.4494C14.5775 15.4237 14.7911 15.3725 14.9884 15.2954C15.2121 15.2079 15.4068 15.0896 15.5713 14.9399L15.5713 14.9399L15.5726 14.9386C15.7371 14.7834 15.8648 14.6003 15.9554 14.3903C16.0527 14.1773 16.1 13.9362 16.1 13.6693C16.1 13.4165 16.0495 13.1934 15.9439 13.0037C15.8481 12.8222 15.7287 12.6689 15.5852 12.5454C15.4456 12.4253 15.299 12.3312 15.1452 12.2642C14.9985 12.1952 14.8673 12.1457 14.7525 12.1176L14.348 12.0121V10.2905C14.5209 10.3386 14.66 10.4188 14.7688 10.5289C14.9017 10.6634 14.9957 10.8491 15.0461 11.0929L15.0626 11.1726H15.144H15.824H15.9499L15.9214 11.05C15.8118 10.5783 15.6235 10.2003 15.3514 9.92323C15.0947 9.66186 14.758 9.50126 14.348 9.43694V9V8.9H14.248H13.808H13.708V9V9.42465C13.5027 9.44693 13.3072 9.49607 13.1219 9.57233L13.1219 9.57233L13.1211 9.5727C12.9125 9.66087 12.7286 9.78247 12.5701 9.93743C12.4162 10.0879 12.2945 10.2682 12.2043 10.4773C12.1129 10.6842 12.068 10.9118 12.068 11.1587C12.068 11.3969 12.1012 11.6056 12.171 11.7821C12.2411 11.9589 12.3493 12.1104 12.4948 12.2356L12.4947 12.2356L12.498 12.2383C12.6455 12.3547 12.8247 12.4555 13.0339 12.5416L13.0339 12.5417L13.0368 12.5428C13.2304 12.6156 13.4543 12.6835 13.708 12.7467V14.6191C13.458 14.5603 13.2488 14.4488 13.0775 14.2856C12.8918 14.1039 12.79 13.8542 12.78 13.5254ZM14.348 14.6304V12.9128C14.442 12.9432 14.5321 12.9759 14.6183 13.011L14.6183 13.0111L14.6216 13.0123C14.7411 13.0561 14.8404 13.1111 14.9213 13.1762C15.0009 13.2403 15.064 13.3179 15.111 13.4098L15.1109 13.4098L15.1119 13.4116C15.1552 13.492 15.18 13.5995 15.18 13.7397C15.18 13.896 15.155 14.0282 15.108 14.1384L15.108 14.1384L15.1072 14.1405C15.065 14.2458 15.0023 14.3343 14.9186 14.4071C14.8391 14.4755 14.7419 14.5294 14.625 14.5675L14.625 14.5675L14.6238 14.5679C14.5397 14.5965 14.4478 14.6175 14.348 14.6304ZM13.2172 10.4915L13.2173 10.4914C13.3558 10.3719 13.5186 10.2936 13.708 10.2574V11.8384C13.6266 11.8126 13.5502 11.7847 13.4786 11.7547C13.3742 11.7109 13.2835 11.6606 13.206 11.6041C13.1382 11.5461 13.0839 11.4775 13.0426 11.3977C13.0073 11.3144 12.988 11.2121 12.988 11.0883C12.988 10.8114 13.0692 10.6186 13.2172 10.4915Z" fill="#10157D" stroke="#10157D" stroke-width="0.2"/>
<path fill-rule="evenodd" clip-rule="evenodd" d="M4.89089 18.2447L14.667 1.31209L14.6657 1.31138C9.9899 -1.38821 4.01096 0.213845 1.31138 4.88966C-1.38821 9.56548 0.213845 15.5444 4.88966 18.244L4.89089 18.2447ZM4.89129 4.88831H6.52063V6.51746H8.1496V8.1468H6.52063V9.77633H4.89129V8.1468H3.26157V6.51746H4.89129V4.88831Z" fill="#10157D"/>
</svg>
