<svg width="20" height="20" viewBox="0 0 20 20" fill="none" xmlns="http://www.w3.org/2000/svg">
<rect width="20" height="20" rx="10" fill="#CECECE"/>
<path d="M5.256 9.584V7.976H6.632C6.92 7.976 7.136 8.04 7.28 8.168C7.424 8.29067 7.496 8.49067 7.496 8.768C7.496 9.056 7.424 9.264 7.28 9.392C7.136 9.52 6.92 9.584 6.632 9.584H5.256ZM4 7V12.712H5.256V10.48H6.512C6.82667 10.48 7.05333 10.5493 7.192 10.688C7.33067 10.8267 7.42133 11.0453 7.464 11.344C7.496 11.5733 7.52 11.8133 7.536 12.064C7.552 12.3147 7.59467 12.5307 7.664 12.712H8.92C8.86133 12.632 8.816 12.536 8.784 12.424C8.75733 12.3067 8.736 12.184 8.72 12.056C8.70933 11.928 8.70133 11.8027 8.696 11.68C8.69067 11.5573 8.68533 11.4507 8.68 11.36C8.66933 11.216 8.648 11.072 8.616 10.928C8.58933 10.784 8.544 10.6533 8.48 10.536C8.416 10.4133 8.33333 10.3093 8.232 10.224C8.13067 10.1333 8.00267 10.0667 7.848 10.024V10.008C8.168 9.88 8.39733 9.69333 8.536 9.448C8.68 9.20267 8.752 8.912 8.752 8.576C8.752 8.35733 8.712 8.15467 8.632 7.968C8.55733 7.776 8.44533 7.608 8.296 7.464C8.152 7.32 7.976 7.208 7.768 7.128C7.56533 7.04267 7.336 7 7.08 7H4Z" fill="black"/>
<path d="M12.4374 10.2H10.5894C10.5948 10.12 10.6108 10.0293 10.6374 9.928C10.6694 9.82667 10.7201 9.73067 10.7894 9.64C10.8641 9.54933 10.9601 9.47467 11.0774 9.416C11.2001 9.352 11.3521 9.32 11.5334 9.32C11.8108 9.32 12.0161 9.39467 12.1494 9.544C12.2881 9.69333 12.3841 9.912 12.4374 10.2ZM10.5894 10.92H13.5734C13.5948 10.6 13.5681 10.2933 13.4934 10C13.4188 9.70667 13.2961 9.44533 13.1254 9.216C12.9601 8.98667 12.7468 8.80533 12.4854 8.672C12.2241 8.53333 11.9174 8.464 11.5654 8.464C11.2508 8.464 10.9628 8.52 10.7014 8.632C10.4454 8.744 10.2241 8.89867 10.0374 9.096C9.85077 9.288 9.70677 9.51733 9.60544 9.784C9.5041 10.0507 9.45344 10.3387 9.45344 10.648C9.45344 10.968 9.50144 11.2613 9.59744 11.528C9.69877 11.7947 9.8401 12.024 10.0214 12.216C10.2028 12.408 10.4241 12.5573 10.6854 12.664C10.9468 12.7653 11.2401 12.816 11.5654 12.816C12.0348 12.816 12.4348 12.7093 12.7654 12.496C13.0961 12.2827 13.3414 11.928 13.5014 11.432H12.5014C12.4641 11.56 12.3628 11.6827 12.1974 11.8C12.0321 11.912 11.8348 11.968 11.6054 11.968C11.2854 11.968 11.0401 11.8853 10.8694 11.72C10.6988 11.5547 10.6054 11.288 10.5894 10.92Z" fill="black"/>
<path d="M14.4952 9.336V12.712H15.6312V9.336H16.4152V8.576H15.6312V8.328C15.6312 8.15733 15.6632 8.03733 15.7272 7.968C15.7965 7.89333 15.9085 7.856 16.0632 7.856C16.2072 7.856 16.3459 7.864 16.4792 7.88V7.032C16.3832 7.02667 16.2845 7.02133 16.1832 7.016C16.0819 7.00533 15.9805 7 15.8792 7C15.4152 7 15.0685 7.11733 14.8392 7.352C14.6099 7.58667 14.4952 7.888 14.4952 8.256V8.576H13.8152V9.336H14.4952Z" fill="black"/>
</svg>
